# File created by Blade
# Date/Time:  Tue Jan 27 17:16:36 2015
#---------------------------------------------------------
:version 1.10
:name HOM
:units
  mass 1.0
  length 1.000000
  angle deg
:documentation
     Acclaim Skeleton File
:root
   axis xyz
   order TX TY TZ RX RY RZ
   position 0.000000 0.000000 0.000000
   orientation 0 0 0
:bonedata
   begin
      id 1
      name Spine_dum
      direction 0.000000 1.000000 0.000000
      length 7.539951
      axis 0.0 0.0 0.0 xyz
   end
   begin
      id 2
      name LeftUpLeg_dum
      direction 1.000000 0.000000 0.000000
      length 3.345476
      axis 0.0 0.0 0.0 xyz
   end
   begin
      id 3
      name RightUpLeg_dum
      direction -1.000000 0.000000 0.000000
      length 3.345476
      axis 0.0 0.0 0.0 xyz
   end
   begin
      id 4
      name Spine
      direction 0.000000 1.000000 0.000000
      length 0.000000
      axis 0.0 0.0 0.0 xyz
      dof rx ry rz
   end
   begin
      id 5
      name Spine_dum1
      direction 0.000000 1.000000 0.000000
      length 15.093809
      axis 0.0 0.0 0.0 xyz
   end
   begin
      id 6
      name Spine_dum2
      direction 0.000000 1.000000 0.000000
      length 9.738928
      axis 0.0 0.0 0.0 xyz
   end
   begin
      id 7
      name Spine_dum3
      direction 0.000000 1.000000 0.000000
      length 9.738928
      axis 0.0 0.0 0.0 xyz
   end
   begin
      id 8
      name Head
      direction 0.000000 1.000000 0.000000
      length 4.527550
      axis 0.0 0.0 0.0 xyz
      dof rx ry rz
   end
   begin
      id 9
      name LeftShoulder
      direction 1.000000 0.000000 0.000000
      length 7.084015
      axis 0.0 0.0 -90.0 xyz
      dof rx ry rz
   end
   begin
      id 10
      name LeftArm
      direction 1.000000 0.000000 0.000000
      length 10.259319
      axis 0.0 0.0 -90.0 xyz
      dof rx ry rz
   end
   begin
      id 11
      name LeftForeArm
      direction 1.000000 0.000000 0.000000
      length 9.896984
      axis 0.0 0.0 -90.0 xyz
      dof ry rz rx
   end
   begin
      id 12
      name LeftHand
      direction 0.000000 0.000000 0.000000
      length 0.000000
      axis 0.0 0.0 -90.0 xyz
      dof rx ry rz
   end
   begin
      id 13
      name LeftHand_dum1
      direction 0.000000 0.000000 0.000000
      length 0.000000
      axis 0.0 0.0 -90.0 xyz
   end
   begin
      id 14
      name LeftHand_dum2
      direction 1.000000 0.000000 0.000000
      length 3.937000
      axis 0.0 0.0 -90.0 xyz
   end
   begin
      id 15
      name LeftHandThumb1
      direction 0.000000 0.000000 1.000000
      length 3.937000
      axis 0.0 0.0 -90.0 xyz
      dof rx rz ry
   end
   begin
      id 16
      name RightShoulder
      direction -1.000000 0.000000 0.000000
      length 7.084015
      axis 0.0 0.0 90.0 xyz
      dof rx ry rz
   end
   begin
      id 17
      name RightArm
      direction -1.000000 0.000000 0.000000
      length 10.259319
      axis 0.0 0.0 90.0 xyz
      dof rx ry rz
   end
   begin
      id 18
      name RightForeArm
      direction -1.000000 0.000000 0.000000
      length 9.896984
      axis 0.0 0.0 90.0 xyz
      dof ry rz rx
   end
   begin
      id 19
      name RightHand
      direction 0.000000 0.000000 0.000000
      length 0.000000
      axis 0.0 0.0 90.0 xyz
      dof rx ry rz
   end
   begin
      id 20
      name RightHand_dum1
      direction 0.000000 0.000000 0.000000
      length 0.000000
      axis 0.0 0.0 90.0 xyz
   end
   begin
      id 21
      name RightHand_dum2
      direction -1.000000 0.000000 0.000000
      length 3.937000
      axis 0.0 0.0 90.0 xyz
   end
   begin
      id 22
      name RightHandThumb1
      direction 0.000000 0.000000 1.000000
      length 3.937000
      axis 0.0 0.0 90.0 xyz
      dof rx rz ry
   end
   begin
      id 23
      name LeftUpLeg
      direction 0.000000 -1.000000 0.000000
      length 19.114733
      axis 0.0 0.0 0.0 xyz
      dof rx ry rz
   end
   begin
      id 24
      name LeftLeg
      direction 0.000000 -1.000000 0.000000
      length 16.045604
      axis 0.0 0.0 0.0 xyz
      dof rx ry rz
   end
   begin
      id 25
      name LeftFoot
      direction 0.000000 -0.258819 0.965926
      length 5.543155
      axis 15.0 0.0 0.0 xyz
      dof rx ry rz
   end
   begin
      id 26
      name LeftToeBase
      direction 0.000000 0.000000 1.000000
      length 2.952750
      axis 0.0 0.0 0.0 xyz
      dof rx ry rz
   end
   begin
      id 27
      name RightUpLeg
      direction 0.000000 -1.000000 0.000000
      length 19.114733
      axis 0.0 0.0 0.0 xyz
      dof rx ry rz
   end
   begin
      id 28
      name RightLeg
      direction 0.000000 -1.000000 0.000000
      length 16.045604
      axis 0.0 0.0 0.0 xyz
      dof rx ry rz
   end
   begin
      id 29
      name RightFoot
      direction 0.000000 -0.258819 0.965926
      length 5.543155
      axis 15.0 0.0 0.0 xyz
      dof rx ry rz
   end
   begin
      id 30
      name RightToeBase
      direction 0.000000 0.000000 1.000000
      length 2.952750
      axis 0.0 0.0 0.0 xyz
      dof rx ry rz
   end
:hierarchy
   begin
      root Spine_dum LeftUpLeg_dum RightUpLeg_dum
      Spine_dum Spine
      LeftUpLeg_dum LeftUpLeg
      RightUpLeg_dum RightUpLeg
      Spine Spine_dum1 Spine_dum2 Spine_dum3
      Spine_dum1 Head
      Spine_dum2 LeftShoulder
      Spine_dum3 RightShoulder
      LeftShoulder LeftArm
      LeftArm LeftForeArm
      LeftForeArm LeftHand
      LeftHand LeftHand_dum1 LeftHand_dum2
      LeftHand_dum1 LeftHandThumb1
      RightShoulder RightArm
      RightArm RightForeArm
      RightForeArm RightHand
      RightHand RightHand_dum1 RightHand_dum2
      RightHand_dum1 RightHandThumb1
      LeftUpLeg LeftLeg
      LeftLeg LeftFoot
      LeftFoot LeftToeBase
      RightUpLeg RightLeg
      RightLeg RightFoot
      RightFoot RightToeBase
   end

# File created by Blade
# Date/Time:  Tue Jan 27 17:16:27 2015
# Frame Rate: 120.000 fps
#------------------------------------------------------
:FULLY-SPECIFIED
:DEGREES
609
root -2.995778 36.872467 0.426928 -7.483132 -53.271306 5.547697
Spine 5.308152 21.900565 -8.944146
Head 2.789126 5.508297 4.984248
LeftShoulder -7.739491 -8.571957 13.976561
LeftArm -28.790441 -29.582617 -19.945559
LeftForeArm 8.480636 -0.000000 65.492052
LeftHand -18.295480 0.000000 49.272271
LeftHandThumb1 -26.253704 0.000000 33.147579
RightShoulder -3.952511 -20.424097 1.421809
RightArm 19.794850 -24.378810 60.599888
RightForeArm -174.848340 -0.000000 27.190003
RightHand 1.507362 -0.000000 4.855985
RightHandThumb1 -24.326973 -0.000000 -32.862282
LeftUpLeg -69.128510 6.636558 2.535063
LeftLeg 84.961559 -0.000000 -0.000000
LeftFoot 11.699617 -7.615596 -28.587861
LeftToeBase 15.567776 -0.000000 -0.000000
RightUpLeg -6.455437 -2.456019 1.922467
RightLeg 23.205872 -0.000000 -0.000000
RightFoot -13.860025 24.230640 0.247239
RightToeBase 13.058911 -0.000000 -0.000000
610
root -3.006875 36.869533 0.415677 -7.402261 -53.169339 5.479055
Spine 5.287229 21.787859 -8.913735
Head 2.714141 5.553222 4.929966
LeftShoulder -7.758543 -8.556669 13.984163
LeftArm -28.685775 -29.585379 -19.995446
LeftForeArm 8.529181 -0.000000 65.418868
LeftHand -18.319263 -0.000000 49.308092
LeftHandThumb1 -26.253704 0.000000 33.147579
RightShoulder -3.972481 -20.420887 1.418809
RightArm 19.771280 -24.346829 60.596694
RightForeArm -174.822992 -0.000000 27.227434
RightHand 1.480282 0.000000 4.813218
RightHandThumb1 -24.326973 -0.000000 -32.862282
LeftUpLeg -69.010363 6.703431 2.653605
LeftLeg 85.288499 -0.000000 -0.000000
LeftFoot 11.976360 -7.833855 -28.651094
LeftToeBase 15.345705 -0.000000 -0.000000
RightUpLeg -6.455310 -2.535218 1.961239
RightLeg 23.159581 -0.000000 -0.000000
RightFoot -13.866714 24.261626 0.336090
RightToeBase 12.807284 -0.000000 -0.000000
611
root -3.018339 36.866983 0.402730 -7.310854 -53.061956 5.406860
Spine 5.255354 21.680940 -8.894830
Head 2.648427 5.589752 4.926579
LeftShoulder -7.751825 -8.558003 13.965287
LeftArm -28.593796 -29.513740 -19.985510
LeftForeArm 8.474260 -0.000000 65.355381
LeftHand -18.306104 -0.000000 49.337540
LeftHandThumb1 -26.253704 0.000000 33.147579
RightShoulder -3.996368 -20.423406 1.426832
RightArm 19.749357 -24.300420 60.600653
RightForeArm -174.771039 0.000000 27.271404
RightHand 1.474020 -0.000000 4.847344
RightHandThumb1 -24.326973 -0.000000 -32.862282
LeftUpLeg -68.894026 6.775448 2.772523
LeftLeg 85.534490 -0.000000 -0.000000
LeftFoot 12.102320 -8.023688 -28.597014
LeftToeBase 15.333275 -0.000000 -0.000000
RightUpLeg -6.460426 -2.589711 2.008669
RightLeg 23.115339 -0.000000 -0.000000
RightFoot -13.874216 24.299043 0.438412
RightToeBase 13.000253 -0.000000 -0.000000
612
root -3.027472 36.865149 0.388051 -7.232509 -52.950308 5.354964
Spine 5.229547 21.579712 -8.893165
Head 2.580140 5.577136 4.920136
LeftShoulder -7.736676 -8.565913 14.000199
LeftArm -28.506681 -29.505924 -20.047362
LeftForeArm 8.506160 0.000000 65.288940
LeftHand -18.264504 -0.000000 49.188316
LeftHandThumb1 -26.253704 0.000000 33.147579
RightShoulder -4.017147 -20.415833 1.436215
RightArm 19.731134 -24.257099 60.610807
RightForeArm -174.724741 -0.000000 27.307783
RightHand 1.485822 0.000000 4.901378
RightHandThumb1 -24.326973 -0.000000 -32.862282
LeftUpLeg -68.774069 6.849464 2.869816
LeftLeg 85.692194 -0.000000 -0.000000
LeftFoot 12.098355 -8.133911 -28.652398
LeftToeBase 15.447378 -0.000000 -0.000000
RightUpLeg -6.476588 -2.652143 2.048769
RightLeg 23.092428 -0.000000 -0.000000
RightFoot -13.860144 24.337588 0.540409
RightToeBase 13.072765 -0.000000 -0.000000
613
root -3.036776 36.863900 0.375884 -7.168218 -52.844311 5.312097
Spine 5.198481 21.497171 -8.890420
Head 2.544753 5.554755 4.944978
LeftShoulder -7.707665 -8.537150 13.998429
LeftArm -28.371687 -29.447432 -20.101896
LeftForeArm 8.542354 0.000000 65.235473
LeftHand -18.459984 -0.000000 49.406114
LeftHandThumb1 -26.253704 0.000000 33.147579
RightShoulder -4.058250 -20.446986 1.451463
RightArm 19.762000 -24.219047 60.583370
RightForeArm -174.760069 -0.000000 27.336960
RightHand 1.440063 0.000000 4.884571
RightHandThumb1 -24.326973 -0.000000 -32.862282
LeftUpLeg -68.647514 6.943632 2.927613
LeftLeg 85.785583 -0.000000 -0.000000
LeftFoot 11.974755 -8.165441 -28.599361
LeftToeBase 15.375105 -0.000000 -0.000000
RightUpLeg -6.476881 -2.693382 2.079660
RightLeg 23.043097 -0.000000 -0.000000
RightFoot -13.854814 24.357760 0.609481
RightToeBase 13.216449 -0.000000 -0.000000
614
root -3.044911 36.863053 0.362091 -7.099602 -52.735919 5.263612
Spine 5.178066 21.410442 -8.877454
Head 2.487858 5.552607 4.938574
LeftShoulder -7.684703 -8.501011 13.983991
LeftArm -28.243004 -29.395778 -20.153245
LeftForeArm 8.542448 -0.000000 65.208983
LeftHand -18.546865 -0.000000 49.419301
LeftHandThumb1 -26.253704 0.000000 33.147579
RightShoulder -4.071919 -20.437540 1.457054
RightArm 19.739262 -24.183840 60.578491
RightForeArm -174.720409 -0.000000 27.376825
RightHand 1.459367 -0.000000 4.875140
RightHandThumb1 -24.326973 -0.000000 -32.862282
LeftUpLeg -68.515975 7.018009 3.028963
LeftLeg 85.801064 -0.000000 -0.000000
LeftFoot 11.770274 -8.195384 -28.608746
LeftToeBase 15.534389 -0.000000 -0.000000
RightUpLeg -6.489567 -2.689147 2.105492
RightLeg 23.001201 -0.000000 -0.000000
RightFoot -13.788389 24.429448 0.797966
RightToeBase 13.398017 -0.000000 -0.000000
615
root -3.051685 36.862257 0.346991 -7.031064 -52.594593 5.240115
Spine 5.128467 21.315621 -8.916091
Head 2.463196 5.565623 5.019149
LeftShoulder -7.648749 -8.451030 13.989203
LeftArm -28.120564 -29.386038 -20.200719
LeftForeArm 8.563717 -0.000000 65.183821
LeftHand -18.551094 -0.000000 49.432251
LeftHandThumb1 -26.253704 0.000000 33.147579
RightShoulder -4.096061 -20.423484 1.484793
RightArm 19.700772 -24.134840 60.588969
RightForeArm -174.683809 -0.000000 27.424046
RightHand 1.492255 -0.000000 4.889505
RightHandThumb1 -24.326973 -0.000000 -32.862282
LeftUpLeg -68.395941 7.056074 3.100192
LeftLeg 85.733697 -0.000000 -0.000000
LeftFoot 11.464333 -8.185615 -28.593709
LeftToeBase 15.636808 -0.000000 -0.000000
RightUpLeg -6.520110 -2.736567 2.124685
RightLeg 22.958623 -0.000000 -0.000000
RightFoot -13.779619 24.428157 0.867333
RightToeBase 13.492794 -0.000000 -0.000000
616
root -3.057560 36.861622 0.330945 -6.949702 -52.453067 5.202905
Spine 5.093406 21.198729 -8.936801
Head 2.405251 5.523473 5.053168
LeftShoulder -7.637128 -8.451325 14.002037
LeftArm -27.996236 -29.299762 -20.267295
LeftForeArm 8.526708 -0.000000 65.163891
LeftHand -18.532493 0.000000 49.524348
LeftHandThumb1 -26.253704 0.000000 33.147579
RightShoulder -4.124364 -20.443505 1.505123
RightArm 19.725478 -24.082940 60.572175
RightForeArm -174.683363 -0.000000 27.465082
RightHand 1.460778 -0.000000 4.933804
RightHandThumb1 -24.326973 -0.000000 -32.862282
LeftUpLeg -68.293636 7.094941 3.163853
LeftLeg 85.601079 -0.000000 -0.000000
LeftFoot 11.118461 -8.062408 -28.350168
LeftToeBase 15.572960 -0.000000 -0.000000
RightUpLeg -6.557563 -2.788258 2.154085
RightLeg 22.922700 -0.000000 -0.000000
RightFoot -13.760253 24.373301 1.049231
RightToeBase 13.769267 -0.000000 -0.000000
617
root -3.062181 36.861233 0.314948 -6.882276 -52.315003 5.188476
Spine 5.057583 21.094418 -8.971581
Head 2.362830 5.492167 5.078586
LeftShoulder -7.633575 -8.425751 13.997733
LeftArm -27.809427 -29.231565 -20.345783
LeftForeArm 8.606437 -0.000000 65.156406
LeftHand -18.809702 -0.000000 49.631331
LeftHandThumb1 -26.253704 0.000000 33.147579
RightShoulder -4.158483 -20.417168 1.518565
RightArm 19.713272 -24.031624 60.592532
RightForeArm -174.736523 -0.000000 27.496465
RightHand 1.462941 0.000000 4.917310
RightHandThumb1 -24.326973 -0.000000 -32.862282
LeftUpLeg -68.192324 7.144703 3.210750
LeftLeg 85.422844 -0.000000 -0.000000
LeftFoot 10.668857 -7.912140 -28.202081
LeftToeBase 15.621866 -0.000000 -0.000000
RightUpLeg -6.605159 -2.836748 2.171569
RightLeg 22.901744 -0.000000 -0.000000
RightFoot -13.756394 24.349435 1.119502
RightToeBase 13.937053 -0.000000 -0.000000
618
root -3.066707 36.860788 0.300958 -6.825127 -52.195773 5.169850
Spine 5.029521 21.016211 -8.984121
Head 2.377603 5.475828 5.122575
LeftShoulder -7.610379 -8.427685 14.008859
LeftArm -27.690796 -29.157551 -20.441241
LeftForeArm 8.617718 -0.000000 65.172755
LeftHand -18.758158 0.000000 49.546642
LeftHandThumb1 -26.253704 0.000000 33.147579
RightShoulder -4.186717 -20.408298 1.519551
RightArm 19.703896 -23.971905 60.616169
RightForeArm -174.697637 -0.000000 27.521285
RightHand 1.423913 -0.000000 4.880517
RightHandThumb1 -24.326973 -0.000000 -32.862282
LeftUpLeg -68.086480 7.211771 3.245833
LeftLeg 85.195749 -0.000000 -0.000000
LeftFoot 10.201969 -7.744643 -27.830455
LeftToeBase 15.361126 -0.000000 -0.000000
RightUpLeg -6.641277 -2.879073 2.188405
RightLeg 22.882103 -0.000000 -0.000000
RightFoot -13.758674 24.336789 1.141283
RightToeBase 13.888592 -0.000000 -0.000000
